<?xml version="1.0" encoding="UTF-8"?>
<svg xmlns="http://www.w3.org/2000/svg" width="0" height="0">
  <defs>
  <symbol id="fluent:qr-code-24-filled" viewBox="0 0 24 24">
    <path fill="currentColor" d="M8 6H6v2h2zm-5-.5A2.5 2.5 0 0 1 5.5 3h3A2.5 2.5 0 0 1 11 5.5v3A2.5 2.5 0 0 1 8.5 11h-3A2.5 2.5 0 0 1 3 8.5zM5.5 5a.5.5 0 0 0-.5.5v3a.5.5 0 0 0 .5.5h3a.5.5 0 0 0 .5-.5v-3a.5.5 0 0 0-.5-.5zM6 16h2v2H6zm-3-.5A2.5 2.5 0 0 1 5.5 13h3a2.5 2.5 0 0 1 2.5 2.5v3A2.5 2.5 0 0 1 8.5 21h-3A2.5 2.5 0 0 1 3 18.5zm2.5-.5a.5.5 0 0 0-.5.5v3a.5.5 0 0 0 .5.5h3a.5.5 0 0 0 .5-.5v-3a.5.5 0 0 0-.5-.5zM18 6h-2v2h2zm-2.5-3A2.5 2.5 0 0 0 13 5.5v3a2.5 2.5 0 0 0 2.5 2.5h3A2.5 2.5 0 0 0 21 8.5v-3A2.5 2.5 0 0 0 18.5 3zM15 5.5a.5.5 0 0 1 .5-.5h3a.5.5 0 0 1 .5.5v3a.5.5 0 0 1-.5.5h-3a.5.5 0 0 1-.5-.5zM13 13h2.75v2.75H13zm5.25 2.75h-2.5v2.5H13V21h2.75v-2.75h2.5V21H21v-2.75h-2.75zm0 0V13H21v2.75z"/>
  </symbol>

  <symbol id="fluent:share-24-filled" viewBox="0 0 24 24">
    <path fill="currentColor" d="M10.25 3a.75.75 0 0 1 0 1.5h-3.5A2.25 2.25 0 0 0 4.5 6.75v10.5l.012.23A2.25 2.25 0 0 0 6.75 19.5h10.5a2.25 2.25 0 0 0 2.25-2.25v-2a.75.75 0 0 1 1.5 0v2A3.75 3.75 0 0 1 17.25 21H6.75a3.75 3.75 0 0 1-3.745-3.557L3 17.25V6.75A3.75 3.75 0 0 1 6.75 3zm4.687-.932a.75.75 0 0 1 .801.113l7 6a.75.75 0 0 1 .032 1.109l-7 6.75a.75.75 0 0 1-1.27-.54v-2.976c-1.014.064-1.97.273-2.94.769c-1.136.581-2.344 1.581-3.689 3.303l-.271.354a.75.75 0 0 1-1.35-.45c0-2.857.687-5.59 2.168-7.628c1.376-1.893 3.41-3.147 6.082-3.344V2.75l.008-.109a.75.75 0 0 1 .429-.573"/>
  </symbol>

  <symbol id="fluent:wallet-24-filled" viewBox="0 0 24 24">
    <path fill="currentColor" d="M3 5v12.75A3.25 3.25 0 0 0 6.25 21h12a3.25 3.25 0 0 0 3.25-3.25v-8.5A3.25 3.25 0 0 0 19 6.087V5.25A2.25 2.25 0 0 0 16.75 3H5.25a2.25 2.25 0 0 0-2.236 2zm2.25 1a.75.75 0 0 1 0-1.5h11.5a.75.75 0 0 1 .75.75V6zm11 7h2a.75.75 0 0 1 0 1.5h-2a.75.75 0 0 1 0-1.5"/>
  </symbol>

  <symbol id="ic:sharp-water-drop" viewBox="0 0 24 24">
    <path fill="currentColor" d="M12 2c-5.33 4.55-8 8.48-8 11.8c0 4.98 3.8 8.2 8 8.2s8-3.22 8-8.2c0-3.32-2.67-7.25-8-11.8m1 16.91c-.32.06-.65.09-1 .09c-2.69 0-4.88-1.94-5-5h1.5c.08 2.07 1.5 3.5 3.5 3.5c.35 0 .69-.04 1-.13z"/>
  </symbol>

  <symbol id="jam:refresh" viewBox="-1.5 -2.5 24 24">
    <path fill="currentColor" d="m17.83 4.194l.42-1.377a1 1 0 1 1 1.913.585l-1.17 3.825a1 1 0 0 1-1.248.664l-3.825-1.17a1 1 0 1 1 .585-1.912l1.672.511A7.381 7.381 0 0 0 3.185 6.584l-.26.633a1 1 0 1 1-1.85-.758l.26-.633A9.381 9.381 0 0 1 17.83 4.194M2.308 14.807l-.327 1.311a1 1 0 1 1-1.94-.484l.967-3.88a1 1 0 0 1 1.265-.716l3.828.954a1 1 0 0 1-.484 1.941l-1.786-.445a7.384 7.384 0 0 0 13.216-1.792a1 1 0 1 1 1.906.608a9.38 9.38 0 0 1-5.38 5.831a9.386 9.386 0 0 1-11.265-3.328"/>
  </symbol>

  <symbol id="lucide:arrow-left" viewBox="0 0 24 24">
    <path fill="none" stroke="currentColor" stroke-linecap="round" stroke-linejoin="round" stroke-width="2" d="m12 19l-7-7l7-7m7 7H5"/>
  </symbol>

  <symbol id="lucide:chevron-left" viewBox="0 0 24 24">
    <path fill="none" stroke="currentColor" stroke-linecap="round" stroke-linejoin="round" stroke-width="2" d="m15 18l-6-6l6-6"/>
  </symbol>

  <symbol id="lucide:chevron-right" viewBox="0 0 24 24">
    <path fill="none" stroke="currentColor" stroke-linecap="round" stroke-linejoin="round" stroke-width="2" d="m9 18l6-6l-6-6"/>
  </symbol>

  <symbol id="lucide:ellipsis" viewBox="0 0 24 24">
    <g fill="none" stroke="currentColor" stroke-linecap="round" stroke-linejoin="round" stroke-width="2"><circle cx="12" cy="12" r="1"/><circle cx="19" cy="12" r="1"/><circle cx="5" cy="12" r="1"/></g>
  </symbol>

  <symbol id="lucide:loader" viewBox="0 0 24 24">
    <path fill="none" stroke="currentColor" stroke-linecap="round" stroke-linejoin="round" stroke-width="2" d="M12 2v4m4.2 1.8l2.9-2.9M18 12h4m-5.8 4.2l2.9 2.9M12 18v4m-7.1-2.9l2.9-2.9M2 12h4M4.9 4.9l2.9 2.9"/>
  </symbol>

  <symbol id="lucide:loader-circle" viewBox="0 0 24 24">
    <path fill="none" stroke="currentColor" stroke-linecap="round" stroke-linejoin="round" stroke-width="2" d="M21 12a9 9 0 1 1-6.219-8.56"/>
  </symbol>

  <symbol id="lucide:minus" viewBox="0 0 24 24">
    <path fill="none" stroke="currentColor" stroke-linecap="round" stroke-linejoin="round" stroke-width="2" d="M5 12h14"/>
  </symbol>

  <symbol id="lucide:pencil" viewBox="0 0 24 24">
    <path fill="none" stroke="currentColor" stroke-linecap="round" stroke-linejoin="round" stroke-width="2" d="M21.174 6.812a1 1 0 0 0-3.986-3.987L3.842 16.174a2 2 0 0 0-.5.83l-1.321 4.352a.5.5 0 0 0 .623.622l4.353-1.32a2 2 0 0 0 .83-.497zM15 5l4 4"/>
  </symbol>

  <symbol id="lucide:plus" viewBox="0 0 24 24">
    <path fill="none" stroke="currentColor" stroke-linecap="round" stroke-linejoin="round" stroke-width="2" d="M5 12h14m-7-7v14"/>
  </symbol>

  <symbol id="lucide:search" viewBox="0 0 24 24">
    <g fill="none" stroke="currentColor" stroke-linecap="round" stroke-linejoin="round" stroke-width="2"><path d="m21 21l-4.34-4.34"/><circle cx="11" cy="11" r="8"/></g>
  </symbol>

  <symbol id="lucide:trash-2" viewBox="0 0 24 24">
    <path fill="none" stroke="currentColor" stroke-linecap="round" stroke-linejoin="round" stroke-width="2" d="M10 11v6m4-6v6m5-11v14a2 2 0 0 1-2 2H7a2 2 0 0 1-2-2V6M3 6h18M8 6V4a2 2 0 0 1 2-2h4a2 2 0 0 1 2 2v2"/>
  </symbol>

  <symbol id="lucide:x" viewBox="0 0 24 24">
    <path fill="none" stroke="currentColor" stroke-linecap="round" stroke-linejoin="round" stroke-width="2" d="M18 6L6 18M6 6l12 12"/>
  </symbol>

  <symbol id="mdi:eye" viewBox="0 0 24 24">
    <path fill="currentColor" d="M12 9a3 3 0 0 0-3 3a3 3 0 0 0 3 3a3 3 0 0 0 3-3a3 3 0 0 0-3-3m0 8a5 5 0 0 1-5-5a5 5 0 0 1 5-5a5 5 0 0 1 5 5a5 5 0 0 1-5 5m0-12.5C7 4.5 2.73 7.61 1 12c1.73 4.39 6 7.5 11 7.5s9.27-3.11 11-7.5c-1.73-4.39-6-7.5-11-7.5"/>
  </symbol>

  <symbol id="mdi:eye-off" viewBox="0 0 24 24">
    <path fill="currentColor" d="M11.83 9L15 12.16V12a3 3 0 0 0-3-3zm-4.3.8l1.55 1.55c-.05.21-.08.42-.08.65a3 3 0 0 0 3 3c.22 0 .44-.03.65-.08l1.55 1.55c-.67.33-1.41.53-2.2.53a5 5 0 0 1-5-5c0-.79.2-1.53.53-2.2M2 4.27l2.28 2.28l.45.45C3.08 8.3 1.78 10 1 12c1.73 4.39 6 7.5 11 7.5c1.55 0 3.03-.3 4.38-.84l.43.42L19.73 22L21 20.73L3.27 3M12 7a5 5 0 0 1 5 5c0 .64-.13 1.26-.36 1.82l2.93 2.93c1.5-1.25 2.7-2.89 3.43-4.75c-1.73-4.39-6-7.5-11-7.5c-1.4 0-2.74.25-4 .7l2.17 2.15C10.74 7.13 11.35 7 12 7"/>
  </symbol>
  </defs>
</svg>
